<?xml version="1.0" encoding="utf-8"?>
<!-- Generator: Adobe Illustrator 16.0.0, SVG Export Plug-In . SVG Version: 6.00 Build 0)  -->
<!DOCTYPE svg PUBLIC "-//W3C//DTD SVG 1.1//EN" "http://www.w3.org/Graphics/SVG/1.1/DTD/svg11.dtd">
<svg version="1.1" id="Calque_1" xmlns="http://www.w3.org/2000/svg" xmlns:xlink="http://www.w3.org/1999/xlink" x="0px" y="0px"
	 width="100px" height="100px" viewBox="0 0 100 100" enable-background="new 0 0 100 100" xml:space="preserve">
<g id="zoomin">
	<path d="M96.45,78.453L85.323,67.318c-1.169-1.167-2.517-2.042-3.957-2.633c3.307-6.112,5.185-13.11,5.185-20.544
		c0-23.9-19.373-43.273-43.276-43.273C19.376,0.867,0,20.24,0,44.139c0,23.9,19.376,43.273,43.275,43.273
		c8.264,0,15.983-2.322,22.549-6.334c0.58,1.22,1.357,2.368,2.367,3.375l11.124,11.132c4.74,4.731,12.408,4.731,17.138,0
		C101.183,90.851,101.183,83.18,96.45,78.453z M43.275,70.25c-14.425,0-26.111-11.688-26.111-26.111
		c0-14.429,11.687-26.119,26.111-26.119s26.119,11.69,26.119,26.119C69.394,58.561,57.699,70.25,43.275,70.25z"/>
	<path d="M59.435,40.504c1.148,0,2.1,0.392,2.858,1.179c0.753,0.786,1.146,1.769,1.179,2.946c-0.001,1.089-0.409,2.041-1.225,2.856
		c-0.814,0.815-1.782,1.24-2.9,1.269L47.513,48.8l-0.044,11.833c0,1.089-0.399,2.062-1.202,2.923
		c-0.801,0.861-1.807,1.292-3.014,1.294c-1.087,0-2.049-0.416-2.879-1.248c-0.831-0.832-1.23-1.866-1.199-3.105l-0.092-11.695
		l-11.833,0.046c-1.029-0.061-1.98-0.468-2.856-1.225c-0.875-0.755-1.313-1.736-1.313-2.946c0-1.087,0.377-2.055,1.13-2.9
		c0.759-0.845,1.727-1.284,2.901-1.313l12.061-0.001V28.403c-0.003-1.149,0.408-2.07,1.222-2.764
		c0.815-0.696,1.784-1.089,2.902-1.18c1.328,0,2.342,0.41,3.036,1.225c0.694,0.816,1.073,1.798,1.133,2.945v11.787L59.435,40.504z"
		/>
</g>
<g id="zoomout">
	<path d="M96.449,78.453L85.322,67.318c-1.167-1.167-2.517-2.042-3.957-2.633c3.307-6.112,5.187-13.11,5.187-20.544
		c0-23.9-19.375-43.273-43.276-43.273C19.378,0.868,0,20.241,0,44.139c0,23.9,19.378,43.272,43.276,43.272
		c8.263,0,15.981-2.322,22.547-6.334c0.58,1.22,1.359,2.368,2.368,3.375l11.122,11.132c4.74,4.731,12.408,4.731,17.138,0
		C101.184,90.851,101.184,83.179,96.449,78.453z M43.276,70.25c-14.427,0-26.112-11.689-26.112-26.111
		c0-14.429,11.687-26.119,26.112-26.119c14.429,0,26.121,11.69,26.121,26.119C69.396,58.561,57.703,70.25,43.276,70.25z"/>
	<path d="M62.292,41.684c-0.755-0.788-1.708-1.179-2.856-1.179l-11.146-0.026v-0.02L27.116,40.46
		c-1.181,0.029-2.149,0.468-2.902,1.313c-0.757,0.845-1.133,1.813-1.133,2.9c0,1.21,0.44,2.191,1.315,2.946s1.828,1.165,2.854,1.225
		L48.202,48.8l11.146-0.044c1.117-0.029,2.083-0.453,2.899-1.269c0.817-0.815,1.227-1.769,1.227-2.856
		C63.437,43.451,63.045,42.47,62.292,41.684z"/>
</g>
<path id="navigator" d="M50,0C22.462,0,0,22.462,0,50s22.462,50,50,50s50-22.462,50-50S77.538,0,50,0z M50,12.5c20.788,0,37.5,16.712,37.5,37.5
	S70.788,87.5,50,87.5S12.5,70.788,12.5,50S29.212,12.5,50,12.5z M68.75,31.25L37.5,37.5l-6.25,31.25L62.5,62.5L68.75,31.25z
	 M50,43.75c3.75,0,6.25,2.5,6.25,6.25s-2.5,6.25-6.25,6.25s-6.25-2.5-6.25-6.25S46.25,43.75,50,43.75z"/>
</svg>
